PathFileType	4	(X/Y/Z)	C:/Users/beibeiliu/ov580/test_trc/User3\sequence.43_training_dense_left.trc
DataRate	CameraRate	NumFrames	NumMarkers	Units	OrigDataRate	OrigDataStartFrame	OrigNumFrames
120	120	7	19	mm	120	97	121
Frame#	Time	ThumbCMC			ThumbMCP			ThumbIP			ThumbTip			IndexMCP			IndexPIP			IndexTip			MiddleMCP			MiddlePIP			MiddleTip			RingMCP			RingPIP			RingTip			PinkyMCP			PinkyPIP			PinkyTip			BackHand1			BackHand2			BackHand3	
		X0	Y0	Z0	X1	Y1	Z1	X2	Y2	Z2	X3	Y3	Z3	X4	Y4	Z4	X5	Y5	Z5	X6	Y6	Z6	X7	Y7	Z7	X8	Y8	Z8	X9	Y9	Z9	X10	Y10	Z10	X11	Y11	Z11	X12	Y12	Z12	X13	Y13	Z13	X14	Y14	Z14	X15	Y15	Z15	X16	Y16	Z16	X17	Y17	Z17	X18	Y18	Z18	
96	0.8	-110.747	6.85429	35.9326	-105.905	14.268	6.182	-100.028	13.1549	-27.4254	-92.2872	0.869234	-44.7519	-125.506	-20.9971	-36.2368	-103.109	-20.9744	-62.2328	-71.1397	-18.6128	-48.5453	-113.727	-43.5718	-34.2246	-81.0216	-41.6248	-44.964	-67.6762	-31.4486	-11.0604	-98.2145	-54.6937	-22.5202	-67.9231	-48.7198	-16.809	-69.2333	-37.8826	14.1351	-91.6001	-67.2782	-8.27736	-67.4166	-56.3971	0.783701	-69.8744	-47.8646	28.1701	-133.667	-54.4389	24.605	-133.813	-49.8931	55.0897	-135.424	-14.958	35.5571	
97	0.808333	-111.879	4.32514	38.0793	-106.665	13.913	8.76896	-102.3	13.363	-19.7622	-95.6475	5.76451	-46.662	-126.409	-20.5771	-33.5204	-99.9553	-20.9795	-60.5391	-70.0796	-15.4927	-45.7665	-113.312	-46.2223	-33.8067	-80.3622	-39.6739	-44.4176	-67.9692	-28.9028	-9.58932	-98.6655	-56.5133	-21.6505	-68.5505	-52.7865	-16.7138	-68.5472	-39.5324	14.6303	-92.2155	-69.2436	-7.40086	-66.9032	-56.0267	-0.762759	-68.9277	-46.4394	28.4469	-135.086	-53.4097	24.9661	-131.115	-51.047	59.7752	-136.954	-21.2625	33.631	
98	0.816667	-115.61	7.81712	39.6651	-108.8	16.3727	9.81322	-106.66	13.2514	-23.0232	-100.052	4.34755	-42.5806	-125.83	-22.4905	-32.185	-99.1175	-19.2375	-56.0962	-73.0657	-12.0214	-39.6837	-112.807	-42.8101	-33.2979	-83.3484	-35.6234	-43.0892	-73.1684	-26.5729	-2.26267	-98.4792	-56.2088	-20.0996	-70.5417	-50.9307	-16.4246	-70.7302	-36.4098	13.6033	-92.847	-67.3637	-5.87811	-68.6869	-54.0853	-1.06693	-70.5026	-44.0682	29.2718	-133.965	-55.1144	25.9055	-131.658	-52.0549	60.751	-138.179	-18.2227	38.8833	
99	0.825	-117.758	3.65609	37.8966	-114.208	12.5343	7.95522	-110.507	11.9059	-20.8383	-103.039	0.59775	-41.601	-128.083	-24.5632	-33.691	-106.501	-22.0786	-56.4242	-77.4453	-11.5343	-38.8578	-116.025	-42.9365	-32.171	-83.6708	-33.5514	-40.6858	-78.262	-24.1276	-1.29267	-98.5456	-55.8278	-20.6712	-72.1843	-45.1549	-16.8249	-74.8228	-32.1424	13.7271	-96.8134	-65.9945	-4.95326	-70.3837	-54.5644	-2.73575	-72.5712	-43.3191	24.5601	-135.595	-57.0896	28.8988	-133.129	-51.0486	58.4033	-141.795	-21.9158	40.7928	
100	0.833333	-115.727	6.23362	42.4825	-116.612	17.325	7.57544	-112.732	12.5662	-20.3223	-104.398	-2.0783	-41.5254	-132.236	-23.4984	-31.394	-113.896	-25.6532	-57.5382	-80.3844	-16.6208	-46.3303	-117.589	-43.8761	-36.8864	-88.6654	-37.2477	-45.6812	-78.6478	-23.7584	-7.28121	-103.933	-55.0404	-20.0913	-74.4723	-45.8974	-19.7945	-74.9581	-33.4348	14.1446	-94.4243	-68.993	-6.26106	-71.5154	-53.9326	-3.9755	-71.7056	-43.1044	24.7995	-135.573	-55.7928	28.1474	-131.966	-47.238	61.7088	-139.232	-17.98	38.366	
101	0.841667	-118.534	6.91938	38.0754	-116.359	16.4135	12.2199	-112.674	12.5614	-17.6669	-103.147	-1.36295	-37.2545	-131.817	-23.3295	-32.2449	-114.926	-24.8152	-58.2141	-78.5432	-20.2943	-51.5831	-120.363	-43.1404	-33.1964	-87.294	-39.6546	-44.81	-75.5259	-30.5626	-11.1927	-103.36	-55.1534	-21.5477	-71.5832	-48.6337	-16.2183	-73.3865	-35.9512	13.3151	-95.1623	-69.1891	-6.47497	-72.4516	-55.3964	-3.73062	-72.036	-45.5402	27.7866	-137.085	-55.0426	28.3867	-132.212	-51.1679	57.2439	-141.681	-18.7196	35.0998	
102	0.85	-116.912	8.34246	39.2432	-114.114	19.2022	9.85963	-107.353	16.4691	-16.9976	-96.9348	1.30099	-36.7874	-128.227	-20.5153	-35.5324	-107.446	-21.6108	-58.4976	-76.8055	-19.0774	-51.414	-115.761	-43.1235	-35.393	-85.0269	-34.2615	-45.439	-72.6459	-28.262	-8.13658	-99.8729	-56.4537	-18.9912	-70.1069	-45.8951	-14.7247	-72.9091	-36.696	17.1035	-95.4166	-66.2028	-4.55124	-70.0138	-52.584	0.398652	-71.7345	-46.6818	30.8933	-135.292	-55.35	26.9688	-133.433	-47.3711	56.2284	-139.745	-20.7315	35.8336	
